<svg width="278.322" height="52.734" viewBox="0 0 278.322 52.734" xmlns="http://www.w3.org/2000/svg"><g id="svgGroup" stroke-linecap="round" fill-rule="evenodd" font-size="9pt" stroke="#ffffff" stroke-width="0.0mm" fill="#ffffff" style="stroke:#ffffff;stroke-width:0.0mm;fill:#ffffff"><path d="M 87.45 50.16 L 77.814 52.404 A 2380.7 2380.7 0 0 0 81.127 36.227 A 2153.143 2153.143 0 0 0 81.576 33.99 Q 83.028 25.608 84.414 17.886 Q 85.8 10.164 86.394 3.696 Q 86.807 3.755 87.141 3.761 A 4.169 4.169 0 0 0 87.219 3.762 L 87.846 3.762 L 89.232 3.762 A 70.359 70.359 0 0 0 91.047 3.737 A 96.171 96.171 0 0 0 93.06 3.663 A 452.662 452.662 0 0 1 95.089 3.572 A 350.761 350.761 0 0 1 96.954 3.498 Q 97.416 5.808 97.845 8.052 A 132.177 132.177 0 0 1 98.52 11.878 A 119.541 119.541 0 0 1 98.604 12.408 A 161.038 161.038 0 0 0 99.305 16.081 A 175.515 175.515 0 0 0 99.33 16.203 Q 99.726 18.15 100.122 20.13 A 88.752 88.752 0 0 0 100.46 22.036 A 70.514 70.514 0 0 0 100.815 23.793 Q 101.178 25.476 101.442 26.862 Q 102.234 22.968 102.927 19.206 A 255.503 255.503 0 0 1 103.612 15.626 A 187.145 187.145 0 0 1 104.28 12.408 L 106.194 3.564 L 114.246 2.574 Q 113.124 7.59 112.134 12.408 Q 111.144 17.226 110.286 21.714 Q 108.636 29.766 107.382 36.894 A 339.166 339.166 0 0 0 106.525 41.98 Q 105.881 46.002 105.468 49.302 A 5.26 5.26 0 0 1 105.541 49.302 Q 106.099 49.31 105.36 49.445 A 12.708 12.708 0 0 1 105.237 49.467 Q 104.28 49.632 102.432 49.929 Q 100.584 50.226 98.472 50.688 Q 96.36 51.15 94.71 51.81 Q 94.512 49.17 94.314 46.662 Q 94.116 44.154 93.852 41.778 Q 93.456 37.554 92.928 33.396 A 138.93 138.93 0 0 0 92.664 31.424 Q 92.345 29.174 92.027 27.548 A 39.743 39.743 0 0 0 91.872 26.796 Q 91.475 29.292 90.932 32.397 A 534.261 534.261 0 0 1 90.75 33.429 Q 90.09 37.158 89.298 40.92 L 87.45 50.16 Z M 50.952 50.094 L 33.858 52.668 Q 34.32 48.048 34.716 43.494 Q 35.112 38.94 35.442 34.518 Q 36.168 26.466 36.597 18.678 A 455.493 455.493 0 0 0 36.952 11.137 A 370.783 370.783 0 0 0 37.158 4.092 A 188.865 188.865 0 0 0 39.571 4.078 Q 41.894 4.048 43.532 3.957 A 40.19 40.19 0 0 0 44.88 3.861 L 47.454 3.63 Q 47.124 7.458 46.794 10.593 Q 46.51 13.287 46.276 15.469 A 1443.773 1443.773 0 0 1 46.2 16.17 L 45.408 24.156 A 7430.671 7430.671 0 0 1 45.174 26.721 Q 45.083 27.724 45.001 28.617 A 3589.746 3589.746 0 0 1 44.847 30.294 A 3249.268 3249.268 0 0 1 44.624 32.703 A 2511.974 2511.974 0 0 1 44.418 34.914 Q 44.22 37.026 43.89 39.534 L 45.078 39.534 L 52.47 4.422 L 56.1 4.224 Q 56.958 4.158 57.816 4.125 A 52.839 52.839 0 0 0 59.14 4.057 A 59.171 59.171 0 0 0 59.598 4.026 Q 60.522 3.96 61.347 3.894 Q 62.172 3.828 62.898 3.762 A 155.747 155.747 0 0 0 61.636 7.887 A 209.52 209.52 0 0 0 60.357 12.474 Q 59.07 17.292 57.783 22.44 Q 56.496 27.588 55.176 32.604 Q 54.12 36.828 53.064 41.217 Q 52.008 45.606 50.952 50.094 Z M 225.522 50.688 L 214.368 51.48 L 215.49 43.164 A 6.026 6.026 0 0 1 215.945 41.441 Q 216.454 40.223 217.503 38.907 A 32.785 32.785 0 0 1 219.664 36.469 A 43.783 43.783 0 0 1 221.958 34.287 A 83.962 83.962 0 0 1 226.578 30.465 A 75.934 75.934 0 0 1 227.238 29.964 Q 230.01 27.852 232.518 25.872 A 46.956 46.956 0 0 0 234.403 24.307 Q 235.67 23.195 236.61 22.176 Q 238.194 20.46 238.194 19.272 A 8.352 8.352 0 0 0 238.12 18.122 Q 238.038 17.537 237.867 17.057 A 3.604 3.604 0 0 0 237.435 16.203 A 3.016 3.016 0 0 0 236.901 15.608 A 2.042 2.042 0 0 0 235.554 15.114 A 4.472 4.472 0 0 0 234.329 15.271 A 3.028 3.028 0 0 0 232.452 16.764 A 7.303 7.303 0 0 0 231.542 19.955 A 8.748 8.748 0 0 0 231.528 20.46 L 231.528 21.12 A 0.932 0.932 0 0 0 231.532 21.206 Q 231.543 21.333 231.594 21.384 Q 230.736 21.45 229.779 21.516 Q 228.822 21.582 227.898 21.714 Q 227.04 21.78 226.149 21.846 A 30.696 30.696 0 0 0 224.877 21.968 A 36.242 36.242 0 0 0 224.268 22.044 A 84.539 84.539 0 0 1 222.471 22.25 A 76.354 76.354 0 0 1 222.222 22.275 Q 221.232 22.374 220.242 22.506 A 16.656 16.656 0 0 1 220.144 21.435 A 18.213 18.213 0 0 1 220.143 21.417 Q 220.11 20.856 220.11 20.394 A 17.507 17.507 0 0 1 220.529 16.489 A 14.306 14.306 0 0 1 221.595 13.431 Q 223.08 10.362 225.555 8.25 Q 228.03 6.138 231.066 5.049 A 18.07 18.07 0 0 1 236.379 3.977 A 16.943 16.943 0 0 1 237.138 3.96 Q 240.504 3.96 243.375 5.379 Q 246.246 6.798 248.028 9.735 Q 249.615 12.351 249.789 16.197 A 21.365 21.365 0 0 1 249.81 17.16 A 13.015 13.015 0 0 1 248.496 22.809 A 15.576 15.576 0 0 1 248.094 23.595 A 23.558 23.558 0 0 1 245.669 27.165 A 30.697 30.697 0 0 1 243.342 29.7 A 45.037 45.037 0 0 1 239.571 33.053 A 57.255 57.255 0 0 1 236.148 35.574 Q 231.99 38.412 227.106 40.986 Q 229.148 40.986 231.736 40.861 A 157.219 157.219 0 0 0 234.201 40.722 Q 238.326 40.458 243.804 39.996 L 242.748 49.566 Q 239.683 49.827 235.136 50.088 A 491.283 491.283 0 0 1 235.026 50.094 A 915.153 915.153 0 0 0 225.827 50.667 A 996.175 996.175 0 0 0 225.522 50.688 Z M 271.656 50.094 L 259.512 52.206 L 260.832 41.646 L 249.48 42.504 L 246.576 36.564 L 250.734 24.09 Q 252.648 18.48 254.232 13.431 A 337.542 337.542 0 0 1 254.999 11.016 Q 256.113 7.557 257.004 5.082 A 83.259 83.259 0 0 0 260.675 5.004 A 70.412 70.412 0 0 0 262.251 4.917 Q 264.726 4.752 267.564 4.356 Q 265.122 10.494 263.043 16.698 Q 260.964 22.902 258.984 29.304 A 6.301 6.301 0 0 1 258.812 30.373 A 5.383 5.383 0 0 1 258.654 30.888 L 263.34 30.888 Q 263.736 28.182 264.264 25.707 Q 264.792 23.232 265.254 20.592 Q 265.584 18.678 265.98 16.566 Q 266.376 14.454 266.838 12.21 L 271.128 11.616 A 83.686 83.686 0 0 1 274.348 11.205 A 92.338 92.338 0 0 1 274.824 11.154 A 557.285 557.285 0 0 1 276.185 11.015 Q 276.722 10.961 277.206 10.913 A 294.694 294.694 0 0 1 278.124 10.824 A 10.208 10.208 0 0 1 278.062 11.448 Q 277.932 12.481 277.566 14.31 A 94.605 94.605 0 0 1 277.53 14.487 A 108.393 108.393 0 0 0 277.125 16.605 Q 276.952 17.555 276.773 18.618 A 218.167 218.167 0 0 0 276.408 20.856 A 502.092 502.092 0 0 1 275.987 23.273 A 649.604 649.604 0 0 1 275.517 25.905 A 243.333 243.333 0 0 1 275.03 28.52 A 181.821 181.821 0 0 1 274.56 30.888 L 278.322 30.888 L 275.616 41.448 L 272.25 41.448 L 271.656 50.094 Z M 188.43 39.6 L 186.912 43.23 Q 186.45 44.286 185.955 45.375 Q 185.46 46.464 184.998 47.52 Q 184.47 48.774 183.876 49.995 Q 183.282 51.216 182.688 52.47 L 171.468 51.48 Q 173.118 48.576 174.768 45.639 Q 176.418 42.702 178.068 39.864 Q 179.718 36.96 181.236 33.957 Q 182.754 30.954 184.14 27.852 A 283.921 283.921 0 0 0 183.8 25.38 Q 183.639 24.248 183.484 23.235 A 166.015 166.015 0 0 0 183.381 22.572 Q 183.018 20.262 182.556 18.018 Q 182.094 15.906 181.566 13.431 Q 181.038 10.956 180.51 8.316 L 191.07 3.96 Q 191.4 7.128 191.862 10.824 A 605.043 605.043 0 0 0 192.252 14.366 A 561.074 561.074 0 0 0 192.258 14.421 Q 192.456 16.17 192.588 17.754 L 195.624 11.154 Q 196.35 9.504 197.109 7.887 Q 197.868 6.27 198.66 4.62 L 208.23 7.194 A 314.706 314.706 0 0 0 206.124 10.796 Q 205.139 12.508 204.284 14.051 A 189.299 189.299 0 0 0 204.171 14.256 Q 202.422 17.424 200.838 20.658 A 609.206 609.206 0 0 0 199.376 23.665 Q 198.635 25.199 197.823 26.899 A 1019.547 1019.547 0 0 0 197.274 28.05 A 102.49 102.49 0 0 0 198.439 34.552 A 124.717 124.717 0 0 0 199.386 38.676 Q 200.772 44.286 201.96 49.038 A 0.756 0.756 0 0 1 201.87 49.071 Q 201.567 49.169 200.378 49.466 A 11.484 11.484 0 0 1 200.376 49.467 Q 198.924 49.83 196.482 50.556 Q 194.106 51.216 192.159 51.777 Q 190.212 52.338 189.288 52.734 Q 189.222 51.414 189.123 50.127 Q 189.024 48.84 188.958 47.586 Q 188.892 46.464 188.826 45.375 Q 188.76 44.286 188.694 43.23 Q 188.632 42.183 188.571 41.336 A 95.965 95.965 0 0 0 188.562 41.217 Q 188.496 40.326 188.43 39.6 Z M 142.164 49.368 L 131.472 52.14 L 134.904 34.98 A 579.967 579.967 0 0 1 136.505 25.838 A 631.302 631.302 0 0 1 136.62 25.212 Q 137.544 20.196 138.369 15.312 A 171.526 171.526 0 0 0 139.103 10.576 A 139.471 139.471 0 0 0 139.656 6.138 A 44.476 44.476 0 0 1 145.11 4.801 A 52.396 52.396 0 0 1 147.774 4.389 Q 152.13 3.828 156.42 3.828 Q 160.678 3.828 162.629 5.398 A 4.376 4.376 0 0 1 163.251 6.006 Q 164.914 8.002 165.053 11.273 A 14.302 14.302 0 0 1 165.066 11.88 A 15.281 15.281 0 0 1 164.137 17.054 A 18.578 18.578 0 0 1 163.482 18.645 Q 161.898 22.044 159.357 24.783 A 21.448 21.448 0 0 1 155.539 28.064 A 19.048 19.048 0 0 1 153.78 29.106 A 362.893 362.893 0 0 1 155.009 31.87 A 464.661 464.661 0 0 1 156.321 34.881 A 639.681 639.681 0 0 1 157.633 37.942 A 547.156 547.156 0 0 1 158.862 40.854 Q 159.522 42.504 160.215 44.154 Q 160.908 45.804 161.568 47.454 L 151.338 51.018 L 148.962 43.098 A 236.92 236.92 0 0 1 147.57 38.278 A 209.706 209.706 0 0 1 147.147 36.729 Q 146.322 33.66 146.19 32.406 L 145.332 32.67 A 1278.105 1278.105 0 0 1 145.126 33.767 A 1588.649 1588.649 0 0 1 144.903 34.947 A 336.754 336.754 0 0 0 144.664 36.226 A 435.767 435.767 0 0 0 144.408 37.62 A 225.232 225.232 0 0 1 143.946 40.085 A 203.129 203.129 0 0 1 143.88 40.425 Q 143.616 41.778 143.352 43.098 L 142.164 49.368 Z M 76.824 48.84 L 55.506 52.14 L 64.152 5.214 L 85.008 3.432 Q 84.546 4.884 84.216 6.402 A 64.272 64.272 0 0 0 83.664 8.672 A 70.923 70.923 0 0 0 83.589 9.009 Q 83.334 10.172 83.152 11.115 A 57.607 57.607 0 0 0 83.094 11.418 A 22.499 22.499 0 0 1 82.62 11.449 Q 82.084 11.479 81.355 11.5 A 88.365 88.365 0 0 1 80.652 11.517 Q 79.068 11.55 77.418 11.583 Q 76.284 11.606 75.368 11.613 A 102.009 102.009 0 0 1 74.58 11.616 L 73.326 11.616 L 71.016 23.43 L 74.844 23.232 Q 75.57 23.166 76.329 23.166 L 77.814 23.166 L 79.134 23.166 A 8.658 8.658 0 0 0 79.471 23.16 Q 79.829 23.146 80.058 23.1 Q 79.926 24.024 79.827 24.915 Q 79.728 25.806 79.596 26.73 L 79.002 30.36 Q 78.779 30.405 78.466 30.419 A 6.997 6.997 0 0 1 78.144 30.426 L 76.89 30.426 Q 76.164 30.492 75.372 30.492 Q 74.58 30.492 73.854 30.558 Q 72.996 30.624 72.072 30.624 A 29.504 29.504 0 0 0 70.865 30.65 A 36.109 36.109 0 0 0 70.092 30.69 L 67.848 42.834 L 77.484 41.316 L 76.824 48.84 Z M 19.008 47.652 L 19.404 43.956 Q 19.47 43.032 19.536 42.24 Q 19.602 41.448 19.668 40.788 L 13.926 40.788 L 11.286 50.292 A 135.075 135.075 0 0 1 10.123 50.445 Q 9.607 50.511 9.04 50.58 A 246.303 246.303 0 0 1 7.854 50.721 A 3285.13 3285.13 0 0 1 5.94 50.944 A 2649.627 2649.627 0 0 1 4.158 51.15 Q 3.102 51.282 2.079 51.414 Q 1.056 51.546 0 51.678 L 5.214 34.386 Q 6.008 31.72 6.997 28.421 A 5158.805 5158.805 0 0 1 7.326 27.324 Q 8.514 23.364 9.735 19.206 Q 10.956 15.048 12.045 11.385 A 314.518 314.518 0 0 0 12.563 9.626 Q 13.299 7.095 13.794 5.214 Q 18.282 4.884 22.935 4.422 Q 27.588 3.96 32.01 3.168 A 279.392 279.392 0 0 0 31.698 6.973 Q 31.536 9.118 31.383 11.517 A 556.099 556.099 0 0 0 30.914 19.887 A 608.857 608.857 0 0 0 30.855 21.12 Q 30.624 26.07 30.36 30.888 A 787.61 787.61 0 0 1 30.078 39.085 A 865.679 865.679 0 0 1 30.03 40.293 Q 29.832 45.144 29.634 50.226 L 27.654 50.49 L 25.674 50.754 Q 24.024 51.018 22.044 51.348 L 18.48 51.942 Q 18.612 50.82 18.744 49.764 L 19.008 47.652 Z M 125.136 50.292 L 113.256 52.14 Q 113.982 48.51 114.741 44.913 Q 115.5 41.316 116.16 37.818 A 420.795 420.795 0 0 0 119.345 19.969 A 362.863 362.863 0 0 0 120.252 13.794 A 10.896 10.896 0 0 0 118.943 13.64 A 12.171 12.171 0 0 0 118.734 13.629 Q 117.946 13.596 117.224 13.661 A 11.221 11.221 0 0 0 117.216 13.662 Q 115.632 13.794 114.114 13.266 A 8.389 8.389 0 0 0 114.167 12.641 A 10.728 10.728 0 0 0 114.18 12.111 L 114.18 10.824 L 114.18 9.405 Q 114.18 8.712 114.246 8.052 A 16.013 16.013 0 0 0 114.303 7.106 A 19.269 19.269 0 0 0 114.312 6.501 Q 114.312 5.676 114.378 4.818 Q 116.094 4.95 117.81 5.016 Q 119.526 5.082 121.242 5.082 Q 126.126 5.082 130.581 4.752 Q 135.036 4.422 138.798 3.96 L 138.072 7.524 L 137.478 10.626 Q 137.148 12.342 136.884 13.332 Q 136.158 13.53 135.432 13.662 Q 134.706 13.794 133.98 13.86 A 18.335 18.335 0 0 0 132.542 14.05 A 19.945 19.945 0 0 0 132.495 14.058 Q 131.736 14.19 131.01 14.322 A 452.977 452.977 0 0 0 130.319 17.799 Q 130.052 19.171 129.82 20.414 A 241.22 241.22 0 0 0 129.393 22.77 Q 128.766 26.334 128.271 29.601 A 363.786 363.786 0 0 1 127.735 33.025 A 475.171 475.171 0 0 1 127.116 36.762 Q 125.994 43.428 125.136 50.292 Z M 169.026 5.874 L 179.322 4.224 L 176.352 21.582 A 2348.875 2348.875 0 0 0 175.475 27.061 Q 175.065 29.641 174.705 31.95 A 1403.245 1403.245 0 0 0 174.603 32.604 Q 173.844 37.488 173.151 41.844 Q 172.458 46.2 171.732 50.754 Q 170.87 50.754 169.758 50.832 A 47.898 47.898 0 0 0 168.696 50.919 Q 166.914 51.084 165.132 51.315 A 136.683 136.683 0 0 0 163.874 51.484 Q 163.383 51.552 162.947 51.617 A 65.557 65.557 0 0 0 162.129 51.744 A 46.712 46.712 0 0 0 161.842 51.791 Q 160.9 51.95 160.842 52.008 A 154.316 154.316 0 0 0 161.737 48.06 Q 162.184 45.97 162.63 43.641 A 252.306 252.306 0 0 0 162.69 43.329 Q 163.614 38.478 164.538 33.264 A 842.589 842.589 0 0 0 165.85 25.666 A 745.356 745.356 0 0 0 166.254 23.232 Q 166.98 19.008 167.673 14.652 Q 168.366 10.296 169.026 5.874 Z M 216.942 20.526 L 206.118 21.648 L 207.9 14.52 A 460.718 460.718 0 0 0 208.717 11.27 A 595.971 595.971 0 0 0 209.583 7.722 A 392.828 392.828 0 0 0 210.433 4.125 A 329.175 329.175 0 0 0 211.2 0.726 Q 211.655 0.777 212.458 0.827 A 71.668 71.668 0 0 0 212.982 0.858 Q 214.17 0.924 215.16 0.924 L 216.348 0.924 A 19.272 19.272 0 0 0 218.31 0.819 A 24.132 24.132 0 0 0 219.747 0.627 Q 221.562 0.33 223.41 0 L 216.942 20.526 Z M 19.602 17.622 L 15.51 34.188 A 8.259 8.259 0 0 0 15.734 34.184 Q 16.161 34.173 16.995 34.122 Q 18.084 34.056 19.074 33.99 A 118.068 118.068 0 0 1 19.417 33.968 Q 20.025 33.929 20.22 33.925 A 1.943 1.943 0 0 1 20.262 33.924 Q 20.262 33.066 20.526 30.426 Q 20.79 27.786 21.054 24.882 A 253.939 253.939 0 0 1 21.331 21.577 A 276.813 276.813 0 0 1 21.351 21.351 A 301.403 301.403 0 0 1 21.708 17.682 A 329.028 329.028 0 0 1 21.714 17.622 L 22.11 11.88 L 21.12 11.946 L 19.602 17.622 Z M 149.094 13.002 L 146.982 23.496 A 5.442 5.442 0 0 0 147.865 23.316 Q 148.743 23.066 149.847 22.51 A 18.015 18.015 0 0 0 149.919 22.473 A 22.447 22.447 0 0 0 152.324 21.045 A 26.548 26.548 0 0 0 153.417 20.262 Q 155.166 18.942 156.354 17.556 A 7.664 7.664 0 0 0 156.915 16.823 Q 157.542 15.881 157.542 15.114 A 1.672 1.672 0 0 0 157.326 14.253 Q 156.963 13.634 155.991 13.365 A 9.986 9.986 0 0 0 154.812 13.121 Q 153.578 12.936 151.932 12.936 L 150.48 12.936 Q 150.084 13.002 149.754 13.002 L 149.094 13.002 Z" vector-effect="non-scaling-stroke"/></g></svg>