<svg width="97.357" height="48.63" viewBox="0 0 97.357 48.63" xmlns="http://www.w3.org/2000/svg"><g id="svgGroup" stroke-linecap="round" fill-rule="evenodd" font-size="9pt" stroke="#ffffff" stroke-width="0.75mm" fill="#ffffff" style="stroke:#ffffff;stroke-width:0.75mm;fill:#ffffff"><path d="M 68.063 7.863 L 76.442 2.095 L 66.806 20.593 L 66.065 10.893 Q 65.13 10.248 64.05 9.749 A 17.87 17.87 0 0 0 61.891 8.911 A 23.286 23.286 0 0 0 60.445 8.506 A 19.951 19.951 0 0 0 59.813 8.363 Q 58.954 8.183 58.262 8.062 A 30.888 30.888 0 0 0 58.04 8.024 A 36.125 36.125 0 0 0 57.673 7.965 Q 57.15 7.883 56.799 7.847 A 111.246 111.246 0 0 0 56.689 7.836 Q 56.361 7.802 56.308 7.799 A 0.15 0.15 0 0 0 56.3 7.799 A 16.509 16.509 0 0 0 54.756 7.867 Q 54.004 7.938 53.36 8.082 A 8.067 8.067 0 0 0 52.626 8.282 Q 51.144 8.766 50.225 9.539 A 5.019 5.019 0 0 0 49.395 10.42 A 4.167 4.167 0 0 0 48.904 11.295 A 5.259 5.259 0 0 0 48.511 12.958 A 4.945 4.945 0 0 0 48.501 13.277 A 8.206 8.206 0 0 0 48.639 14.823 Q 48.841 15.877 49.339 16.709 Q 50.153 18.072 51.789 19.145 A 11.189 11.189 0 0 0 51.885 19.207 A 16.216 16.216 0 0 0 53.427 20.073 Q 54.666 20.689 56.235 21.253 A 104.949 104.949 0 0 0 58.349 21.987 Q 60.219 22.615 62.455 23.3 A 19.042 19.042 0 0 1 66.532 25.121 A 15.192 15.192 0 0 1 69.4 27.315 A 13.941 13.941 0 0 1 69.867 27.795 Q 71.285 29.326 72.107 31.211 A 10.01 10.01 0 0 1 72.929 35.256 A 15.204 15.204 0 0 1 72.762 37.559 A 11.334 11.334 0 0 1 72.22 39.719 A 12.527 12.527 0 0 1 71.056 42.121 A 10.896 10.896 0 0 1 70.335 43.135 Q 69.158 44.602 67.611 45.617 Q 66.065 46.632 64.405 47.26 A 17.219 17.219 0 0 1 61.053 48.163 A 21.767 21.767 0 0 1 59.118 48.391 A 17.503 17.503 0 0 1 57.879 48.437 A 22.135 22.135 0 0 1 53.24 47.967 A 18.394 18.394 0 0 1 49.984 46.954 A 25.484 25.484 0 0 1 43.377 42.894 L 34.998 48.63 L 44.344 32.065 A 17.601 17.601 0 0 0 45.713 36.529 A 16.144 16.144 0 0 0 47.791 39.921 A 14.972 14.972 0 0 0 48.147 40.348 Q 49.597 42.023 51.498 43.022 A 8.801 8.801 0 0 0 55.655 44.021 A 10.341 10.341 0 0 0 57.691 43.828 A 8.622 8.622 0 0 0 58.959 43.474 A 8.884 8.884 0 0 0 60.546 42.716 A 7.357 7.357 0 0 0 61.521 42.007 A 6.723 6.723 0 0 0 63.18 39.88 A 5.648 5.648 0 0 0 63.776 37.351 A 5.487 5.487 0 0 0 63.502 35.589 A 4.816 4.816 0 0 0 62.745 34.176 A 9.311 9.311 0 0 0 61.204 32.618 A 11.928 11.928 0 0 0 60.038 31.792 A 23.24 23.24 0 0 0 58.005 30.664 A 29.568 29.568 0 0 0 56.219 29.858 Q 54.076 28.972 51.82 28.037 Q 49.565 27.103 47.421 25.975 A 18.404 18.404 0 0 1 44.036 23.698 A 16.931 16.931 0 0 1 43.603 23.316 Q 41.927 21.785 40.896 19.723 A 9.511 9.511 0 0 1 40.048 17.09 A 12.98 12.98 0 0 1 39.864 14.856 A 11.059 11.059 0 0 1 40.718 10.619 A 10.227 10.227 0 0 1 42.928 7.314 A 12.026 12.026 0 0 1 43.361 6.896 A 11.9 11.9 0 0 1 45.684 5.246 A 16.114 16.114 0 0 1 47.921 4.238 Q 50.411 3.326 53.759 3.233 A 27.774 27.774 0 0 1 54.527 3.223 A 21.659 21.659 0 0 1 58.227 3.531 A 19.811 19.811 0 0 1 58.733 3.625 Q 60.747 4.028 62.487 4.689 A 21.973 21.973 0 0 1 64.537 5.584 A 18.297 18.297 0 0 1 65.646 6.187 Q 66.969 6.97 67.928 7.752 A 12.942 12.942 0 0 1 68.063 7.863 Z M 30.97 6.252 L 38.833 0 L 29.842 19.271 L 29.068 9.894 A 10.744 10.744 0 0 0 27.973 8.741 A 8.241 8.241 0 0 0 26.813 7.863 A 12.585 12.585 0 0 0 25.64 7.215 A 9.58 9.58 0 0 0 24.508 6.751 Q 23.535 6.427 22.735 6.313 A 6.765 6.765 0 0 0 22.51 6.284 A 25.352 25.352 0 0 0 22.092 6.242 Q 21.641 6.2 21.323 6.19 A 5.972 5.972 0 0 0 21.141 6.188 A 9.379 9.379 0 0 0 16.291 7.509 A 11.365 11.365 0 0 0 13.407 9.966 A 14.238 14.238 0 0 0 12.407 11.295 A 17.752 17.752 0 0 0 10.817 14.295 A 23.997 23.997 0 0 0 9.813 17.241 A 26.318 26.318 0 0 0 9.044 21.412 A 34.215 34.215 0 0 0 8.862 25.008 Q 8.862 29.294 9.813 32.839 A 25.25 25.25 0 0 0 10.913 36.086 A 18.787 18.787 0 0 0 12.391 38.93 A 14.296 14.296 0 0 0 14.219 41.251 A 11.366 11.366 0 0 0 16.21 42.877 A 8.522 8.522 0 0 0 20.883 44.279 A 8.518 8.518 0 0 0 23.084 44.007 A 6.799 6.799 0 0 0 25.201 43.039 A 10.234 10.234 0 0 0 28.166 39.896 A 14.162 14.162 0 0 0 29.858 35.739 A 20.122 20.122 0 0 0 30.315 32.995 A 16.923 16.923 0 0 0 30.39 31.421 L 30.39 30.567 A 5.644 5.644 0 0 0 30.365 30.044 A 6.797 6.797 0 0 0 30.325 29.713 A 11.462 11.462 0 0 1 31.895 30.948 Q 32.761 31.77 33.312 32.697 A 7.092 7.092 0 0 1 33.403 32.855 A 7.647 7.647 0 0 1 34.27 35.209 A 6.991 6.991 0 0 1 34.386 36.48 A 8.075 8.075 0 0 1 34.116 38.505 A 11.06 11.06 0 0 1 33.532 40.17 Q 32.678 42.12 31.002 43.78 A 12.764 12.764 0 0 1 28.332 45.788 A 15.698 15.698 0 0 1 26.877 46.519 A 12.432 12.432 0 0 1 23.741 47.414 A 16.659 16.659 0 0 1 21.205 47.599 A 24.895 24.895 0 0 1 16.017 47.051 Q 13.439 46.503 11.086 45.359 A 19.835 19.835 0 0 1 6.703 42.442 A 17.65 17.65 0 0 1 3.378 38.524 A 19.823 19.823 0 0 1 3.191 38.221 Q 1.708 35.771 0.854 32.581 A 24.567 24.567 0 0 1 0.164 28.757 A 32.03 32.03 0 0 1 0 25.459 A 32.775 32.775 0 0 1 0.25 21.333 A 26.558 26.558 0 0 1 0.79 18.385 A 26.632 26.632 0 0 1 2.016 14.576 A 22.532 22.532 0 0 1 2.981 12.52 Q 4.383 9.894 6.268 7.879 A 20.566 20.566 0 0 1 9.507 5.054 A 18.618 18.618 0 0 1 10.329 4.512 A 18.16 18.16 0 0 1 14.905 2.465 A 17.19 17.19 0 0 1 19.691 1.772 A 17.471 17.471 0 0 1 25.975 2.917 Q 28.972 4.061 30.97 6.252 Z M 97.228 5.801 L 89.751 11.827 L 90.686 40.992 L 97.357 45.665 L 74.508 47.663 L 82.371 41.121 L 84.337 9.894 L 77.602 4.608 L 97.228 5.801 Z" vector-effect="non-scaling-stroke"/></g></svg>